<svg fill="none" height="20" role="img" viewBox="0 0 184 20" width="184" xmlns="http://www.w3.org/2000/svg">
<title>Handelsbanken</title><path d="M4.06724 0.262695V7.41659H11.5505V0.262695H15.6217V18.9018H11.5505V10.8558H4.06724V18.8994H0V0.262695H4.06724Z" fill="currentColor"></path><path d="M18.7969 7.38332C19.1687 6.81565 19.6647 6.34149 20.2469 5.99734C20.8604 5.63852 21.5296 5.38645 22.2263 5.25172C22.9548 5.1041 23.696 5.0296 24.439 5.0293C25.1222 5.03046 25.8046 5.07859 26.4813 5.17336C27.1365 5.25904 27.774 5.44871 28.3704 5.73534C28.9241 6.00101 29.4041 6.40044 29.7677 6.89811C30.1548 7.47927 30.3454 8.17076 30.3113 8.86982V15.8963V17.6464C30.3073 18.0684 30.3585 18.4892 30.4637 18.8978H26.929C26.8793 18.7205 26.8441 18.5394 26.8237 18.3564C26.7923 18.1403 26.7939 17.8197 26.7766 17.5941C26.2075 18.1931 25.4946 18.634 24.7069 18.874C23.9177 19.1171 23.0971 19.2404 22.2719 19.2397C21.6687 19.2436 21.068 19.1637 20.4865 19.0023C19.9597 18.8587 19.4668 18.61 19.0372 18.2709C18.6201 17.9358 18.2877 17.5058 18.0672 17.0163C17.8214 16.4479 17.7021 15.8322 17.7176 15.2124C17.6931 14.557 17.831 13.9057 18.119 13.3175C18.3665 12.8451 18.7212 12.4382 19.1543 12.1302C19.5956 11.8254 20.0859 11.5999 20.6035 11.4637C21.1446 11.3164 21.6931 11.1985 22.2467 11.1107C22.7987 11.0236 23.342 10.9539 23.8766 10.9017C24.3562 10.8581 24.832 10.7787 25.2999 10.6642C25.6572 10.5866 25.993 10.4304 26.2833 10.2067C26.4059 10.0993 26.5007 9.96333 26.5593 9.81062C26.6178 9.65791 26.6385 9.49309 26.6195 9.33049C26.6349 9.00131 26.5685 8.67346 26.4263 8.3767C26.3059 8.15074 26.1277 7.96134 25.9102 7.82817C25.6804 7.69242 25.4263 7.60366 25.1624 7.56696C24.8595 7.52193 24.5536 7.49996 24.2474 7.50126C23.6437 7.4672 23.0456 7.63407 22.5452 7.97618C22.3213 8.17278 22.1412 8.41492 22.0168 8.68668C21.8924 8.95843 21.8265 9.25365 21.8234 9.55292H18.1394C18.1629 8.78362 18.3899 8.03461 18.7969 7.38332ZM26.0493 12.6217C25.804 12.7034 25.5537 12.7687 25.2999 12.8172C25.0328 12.87 24.7529 12.9135 24.4602 12.9478C24.1675 12.9821 23.8748 13.0256 23.5821 13.0784C23.3066 13.1301 23.0348 13.1996 22.7683 13.2866C22.5183 13.3652 22.2827 13.4844 22.0708 13.6396C21.8722 13.7882 21.709 13.9797 21.5932 14.2C21.4635 14.468 21.4014 14.7641 21.4125 15.062C21.403 15.3512 21.4651 15.6382 21.5932 15.8971C21.7069 16.1161 21.8764 16.3008 22.0841 16.4321C22.3061 16.5685 22.5515 16.6617 22.8076 16.7068C23.0889 16.7598 23.3744 16.7863 23.6606 16.786C24.2429 16.8189 24.8232 16.6926 25.34 16.4203C25.7024 16.2113 26.0049 15.9113 26.2181 15.5496C26.4 15.2329 26.5185 14.8833 26.5669 14.5206C26.605 14.2435 26.6268 13.9644 26.6321 13.6847V12.3019C26.4612 12.4471 26.263 12.5558 26.0493 12.6217Z" fill="currentColor"></path><path d="M113.986 7.38332C114.357 6.8157 114.853 6.34154 115.435 5.99734C116.049 5.63848 116.718 5.38641 117.415 5.25172C118.144 5.10407 118.885 5.02957 119.628 5.0293C120.311 5.03046 120.993 5.07859 121.67 5.17336C122.325 5.25904 122.963 5.44871 123.559 5.73534C124.113 6.0009 124.593 6.40035 124.957 6.89811C125.344 7.47927 125.534 8.17076 125.5 8.86982V15.8963V17.6464C125.496 18.0684 125.547 18.4892 125.652 18.8978H122.118C122.068 18.7205 122.033 18.5394 122.012 18.3564C121.981 18.1403 121.983 17.8197 121.965 17.5941C121.396 18.1931 120.683 18.6339 119.896 18.874C119.106 19.1171 118.286 19.2403 117.461 19.2397C116.857 19.2436 116.257 19.1636 115.675 19.0023C115.148 18.8588 114.656 18.6101 114.226 18.2709C113.809 17.9358 113.476 17.5058 113.256 17.0163C113.01 16.4478 112.891 15.8321 112.907 15.2124C112.882 14.557 113.02 13.9057 113.308 13.3175C113.555 12.845 113.91 12.4382 114.343 12.1302C114.784 11.8254 115.275 11.5999 115.792 11.4637C116.333 11.3164 116.882 11.1985 117.435 11.1107C117.987 11.0236 118.531 10.9539 119.065 10.9017C119.545 10.8581 120.021 10.7787 120.489 10.6642C120.846 10.5865 121.182 10.4303 121.472 10.2067C121.595 10.0993 121.689 9.96333 121.748 9.81062C121.807 9.65791 121.827 9.49309 121.808 9.33049C121.823 9.00132 121.757 8.67351 121.615 8.3767C121.495 8.15069 121.317 7.96128 121.099 7.82817C120.869 7.69236 120.615 7.6036 120.351 7.56696C120.048 7.52192 119.742 7.49996 119.436 7.50126C118.832 7.46714 118.234 7.63401 117.734 7.97618C117.51 8.17278 117.33 8.41492 117.206 8.68668C117.081 8.95843 117.015 9.25365 117.012 9.55292H113.328C113.352 8.78362 113.579 8.03461 113.986 7.38332ZM121.238 12.6217C120.993 12.7034 120.742 12.7687 120.489 12.8172C120.222 12.87 119.942 12.9135 119.649 12.9478C119.356 12.9821 119.064 13.0256 118.771 13.0784C118.495 13.1301 118.224 13.1997 117.957 13.2866C117.707 13.3652 117.471 13.4844 117.26 13.6396C117.061 13.7881 116.898 13.9796 116.782 14.2C116.652 14.468 116.59 14.7641 116.601 15.062C116.592 15.3512 116.654 15.6382 116.782 15.8971C116.896 16.1161 117.065 16.3008 117.273 16.4321C117.495 16.5686 117.74 16.6617 117.996 16.7068C118.278 16.7598 118.563 16.7863 118.849 16.786C119.432 16.8189 120.012 16.6926 120.529 16.4203C120.891 16.2113 121.194 15.9113 121.407 15.5496C121.589 15.2329 121.707 14.8833 121.756 14.5206C121.793 14.2419 121.815 13.9612 121.819 13.68V12.2972C121.649 12.4438 121.452 12.5542 121.238 12.6217Z" fill="currentColor"></path><path d="M36.304 5.39825V6.94966H36.3825C36.8317 6.31926 37.4381 5.81957 38.1404 5.50115C38.8778 5.17802 39.6757 5.01925 40.4796 5.03573C41.3064 5.00798 42.1305 5.14545 42.9044 5.4402C43.491 5.67579 44.0058 6.0629 44.3968 6.5626C44.7778 7.08108 45.0392 7.6787 45.1619 8.31189C45.3152 9.06336 45.3892 9.82908 45.3826 10.5963V18.8979H41.6987V11.2714C41.7553 10.4079 41.5757 9.54516 41.1795 8.77731C40.9711 8.48893 40.6909 8.261 40.3673 8.11648C40.0436 7.97196 39.6879 7.91596 39.3359 7.95412C38.9274 7.9171 38.516 7.97969 38.1364 8.1366C37.7569 8.29352 37.4204 8.54015 37.1554 8.85567C36.6306 9.74923 36.3948 10.7852 36.4807 11.82V18.8979H32.8164V5.39825H36.304Z" fill="currentColor"></path><path d="M131.481 5.39825V6.94966H131.56C132.009 6.31926 132.615 5.81957 133.318 5.50115C134.055 5.17804 134.853 5.01928 135.657 5.03573C136.484 5.00798 137.308 5.14545 138.082 5.4402C138.668 5.67565 139.183 6.06279 139.574 6.5626C139.955 7.08104 140.217 7.67867 140.339 8.31189C140.492 9.06338 140.566 9.82909 140.56 10.5963V18.8979H136.875V11.2714C136.932 10.4078 136.752 9.54513 136.356 8.77731C136.148 8.48887 135.868 8.26089 135.544 8.11636C135.22 7.97184 134.864 7.91587 134.512 7.95412C134.104 7.9171 133.693 7.97969 133.313 8.1366C132.933 8.29352 132.597 8.54015 132.332 8.85567C131.807 9.74919 131.571 10.7852 131.657 11.82V18.8979H127.992V5.39825H131.481Z" fill="currentColor"></path><path d="M174.561 5.39824V6.94966H174.639C175.088 6.31928 175.695 5.8196 176.397 5.50115C177.134 5.17806 177.932 5.0193 178.736 5.03572C179.563 5.008 180.387 5.14546 181.161 5.4402C181.748 5.67571 182.262 6.06284 182.653 6.56259C183.034 7.08105 183.296 7.67868 183.418 8.31188C183.572 9.06338 183.646 9.82909 183.639 10.5963V18.8979H179.955V11.2714C180.012 10.4079 179.832 9.54516 179.436 8.77731C179.228 8.48893 178.948 8.261 178.624 8.11647C178.3 7.97195 177.945 7.91595 177.593 7.95411C177.184 7.91703 176.773 7.97959 176.393 8.13651C176.014 8.29342 175.677 8.54009 175.412 8.85567C174.887 9.74918 174.651 10.7852 174.737 11.82V18.8979H171.072V5.39824H174.561Z" fill="currentColor"></path><path d="M67.3354 15.6718C67.941 16.1514 68.6781 16.432 69.447 16.4759C70.216 16.5198 70.9797 16.3248 71.6352 15.9172C72.0887 15.6433 72.4359 15.2217 72.6194 14.722H75.8587C75.4928 16.1267 74.6494 17.3575 73.4756 18.2C72.3099 18.9238 70.9592 19.2876 69.5906 19.2464C68.6172 19.2609 67.65 19.0882 66.7408 18.7374C65.9263 18.4199 65.1914 17.925 64.5886 17.2881C63.9879 16.6403 63.5245 15.876 63.2266 15.0418C62.8979 14.1202 62.7353 13.1469 62.7466 12.1677C62.7385 11.2049 62.9057 10.2487 63.2399 9.34667C63.5468 8.50684 64.0218 7.73953 64.6352 7.09236C65.2487 6.44518 65.9876 5.93195 66.806 5.5845C67.6871 5.21026 68.6353 5.02351 69.5913 5.03597C70.6231 5.01139 71.6454 5.24013 72.5699 5.70244C73.3938 6.12806 74.1078 6.74138 74.6554 7.49369C75.2085 8.26283 75.6086 9.13265 75.8336 10.0551C76.0777 11.0375 76.1652 12.0528 76.0928 13.0629H66.4329C66.3933 14.0166 66.7161 14.9496 67.3354 15.6718ZM71.4922 8.55276C71.2291 8.29306 70.9139 8.09319 70.5677 7.96662C70.2215 7.84005 69.8524 7.78972 69.4853 7.81901C68.9807 7.80151 68.4792 7.90486 68.0219 8.12058C67.6612 8.29876 67.3429 8.55337 67.0888 8.867C66.8649 9.14584 66.6978 9.46647 66.5971 9.81051C66.5096 10.1005 66.453 10.399 66.4282 10.701H72.4112C72.3079 9.9132 71.9901 9.16963 71.493 8.55276H71.4922Z" fill="currentColor"></path><path d="M81.6937 0.262695V18.9018H78.0098V0.262695H81.6937Z" fill="currentColor"></path><path d="M87.4315 15.5561C87.5888 15.8349 87.8059 16.0747 88.067 16.2582C88.3386 16.4457 88.6417 16.5822 88.9616 16.661C89.3049 16.7486 89.6577 16.7922 90.0118 16.7909C90.2862 16.7892 90.5597 16.7587 90.8279 16.6998C91.0998 16.644 91.362 16.5474 91.6055 16.4133C91.8362 16.2851 92.0356 16.1066 92.1892 15.8909C92.353 15.6489 92.4356 15.3604 92.4248 15.0677C92.4248 14.511 92.0582 14.093 91.3251 13.8139C90.323 13.4606 89.2968 13.181 88.2546 12.9773C87.7184 12.8554 87.1948 12.7118 86.6837 12.5467C86.2019 12.3947 85.7439 12.1749 85.3232 11.8936C84.9316 11.6304 84.6037 11.282 84.3634 10.8741C84.1088 10.4155 83.9833 9.89548 84.0005 9.37023C83.9702 8.62305 84.145 7.88192 84.5056 7.22834C84.8323 6.68159 85.2918 6.22774 85.8409 5.90964C86.42 5.57783 87.0513 5.34814 87.7072 5.23051C88.4081 5.09891 89.1197 5.03319 89.8327 5.0342C90.5417 5.03269 91.249 5.10269 91.9441 5.24317C92.5896 5.36843 93.208 5.60745 93.7711 5.94922C94.3089 6.28239 94.7653 6.73339 95.1064 7.26871C95.4859 7.8975 95.7043 8.61151 95.7419 9.34649H92.2496C92.2578 9.0533 92.1874 8.7633 92.0459 8.50701C91.9043 8.25072 91.6969 8.0376 91.4453 7.89006C90.9137 7.62546 90.3264 7.49481 89.7337 7.50933C89.5083 7.51035 89.2831 7.5233 89.059 7.54812C88.8313 7.57089 88.6083 7.62827 88.3976 7.7183C88.2019 7.8031 88.0287 7.93296 87.8918 8.09744C87.7455 8.28732 87.6719 8.52388 87.6844 8.76392C87.6801 8.91789 87.7104 9.07085 87.7733 9.21126C87.8362 9.35167 87.9299 9.47585 88.0473 9.57444C88.326 9.80369 88.6461 9.97651 88.9899 10.0834C89.4277 10.2274 89.8736 10.3452 90.3252 10.4364C90.8253 10.542 91.3348 10.6554 91.8538 10.7768C92.3847 10.8972 92.9091 11.0454 93.4247 11.2208C93.9097 11.3826 94.3682 11.616 94.7852 11.9134C95.1784 12.1961 95.5057 12.5619 95.7443 12.9852C96.0008 13.4717 96.1259 14.0176 96.1071 14.5682C96.1425 15.2991 95.9833 16.0262 95.6461 16.6742C95.3088 17.3221 94.8057 17.8675 94.189 18.2536C93.5903 18.6312 92.927 18.8929 92.2331 19.0254C91.4952 19.1733 90.7446 19.2475 89.9922 19.247C89.2268 19.2471 88.4634 19.1675 87.7142 19.0095C87.0125 18.8696 86.3412 18.6048 85.7317 18.2275C85.1524 17.862 84.6646 17.3669 84.306 16.7806C83.9107 16.0956 83.7007 15.3179 83.6973 14.5255H87.1896C87.1777 14.8846 87.2612 15.2404 87.4315 15.5561Z" fill="currentColor"></path><path d="M146.73 0.262695V10.2614L151.365 5.40609H155.716L150.666 10.3658L156.287 18.9018H151.831L148.154 12.8726L146.729 14.2562V18.9018H143.045V0.262695H146.73Z" fill="currentColor"></path><path d="M160.45 15.6718C161.056 16.1514 161.793 16.432 162.562 16.4759C163.331 16.5198 164.095 16.3248 164.75 15.9172C165.203 15.6432 165.551 15.2216 165.734 14.722H168.972C168.606 16.1266 167.763 17.3574 166.589 18.2C165.423 18.9238 164.073 19.2876 162.704 19.2464C161.73 19.2609 160.763 19.0882 159.853 18.7374C159.039 18.4197 158.304 17.9248 157.701 17.2881C157.101 16.6403 156.637 15.876 156.34 15.0418C156.011 14.1202 155.849 13.1469 155.86 12.1677C155.851 11.2049 156.018 10.2487 156.352 9.34667C156.66 8.50694 157.134 7.73971 157.748 7.09255C158.361 6.4454 159.1 5.93211 159.919 5.5845C160.8 5.21022 161.748 5.02347 162.704 5.03597C163.736 5.01139 164.758 5.24013 165.682 5.70244C166.506 6.12821 167.22 6.74151 167.767 7.49369C168.32 8.26289 168.72 9.13269 168.945 10.0551C169.189 11.0375 169.277 12.0528 169.205 13.0629H159.543C159.505 14.0172 159.83 14.9501 160.45 15.6718ZM164.608 8.55276C164.345 8.29313 164.029 8.09331 163.683 7.96675C163.337 7.84018 162.967 7.78981 162.6 7.81901C162.096 7.8016 161.594 7.90494 161.137 8.12058C160.776 8.29873 160.458 8.55336 160.204 8.867C159.98 9.14584 159.813 9.46646 159.712 9.81051C159.625 10.1006 159.569 10.399 159.544 10.701H165.528C165.424 9.91312 165.105 9.16963 164.608 8.55276Z" fill="currentColor"></path><path d="M57.1622 0.251953V6.77024H57.1237C56.6858 6.19682 56.1046 5.75077 55.4397 5.47766C54.7202 5.16358 53.9418 5.00994 53.1578 5.02728C52.3015 5.00425 51.4519 5.1865 50.6792 5.55901C49.9064 5.93153 49.2324 6.48366 48.7128 7.16996C48.208 7.83875 47.8301 8.59576 47.5982 9.40288C47.3467 10.2549 47.2202 11.1395 47.2227 12.0284C47.2195 12.9475 47.3459 13.8625 47.5982 14.7457C47.829 15.5771 48.206 16.3599 48.7112 17.057C49.2047 17.729 49.8477 18.275 50.5885 18.6512C51.4105 19.055 52.3158 19.2563 53.2301 19.2385C53.9976 19.2532 54.7613 19.1252 55.4829 18.8609C56.2091 18.5912 56.84 18.1109 57.2958 17.4805H57.3476V18.8989H60.8462V0.251953H57.1622ZM53.93 16.5164C51.502 16.5164 50.4809 14.2439 50.4809 12.1281C50.4809 9.91184 51.3669 7.75253 53.9331 7.75253C56.4718 7.75253 57.2973 9.90867 57.2973 12.106C57.2973 14.327 56.5244 16.5164 53.93 16.5164Z" fill="currentColor"></path><path d="M98.0312 0.25V18.8954H101.529V17.4785H101.58C102.036 18.1089 102.667 18.5892 103.393 18.859C104.114 19.1233 104.878 19.2513 105.646 19.2365C106.56 19.2544 107.465 19.0531 108.287 18.6492C109.028 18.2731 109.671 17.7271 110.165 17.0551C110.67 16.3579 111.047 15.5751 111.278 14.7438C111.53 13.8605 111.656 12.9456 111.653 12.0265C111.656 11.1375 111.529 10.253 111.278 9.40094C111.046 8.59388 110.668 7.8369 110.163 7.16801C109.643 6.48175 108.969 5.92966 108.197 5.55715C107.424 5.18464 106.574 5.00237 105.718 5.02533C104.934 5.0079 104.156 5.16154 103.436 5.47572C102.771 5.74876 102.19 6.19481 101.752 6.76829H101.714V0.25H98.0312ZM101.577 12.104C101.577 9.90989 102.402 7.75058 104.941 7.75058C107.507 7.75058 108.393 9.90672 108.393 12.1262C108.393 14.242 107.372 16.5145 104.944 16.5145C102.351 16.5208 101.575 14.3251 101.575 12.104H101.577Z" fill="currentColor"></path>
</svg>