<svg xmlns="http://www.w3.org/2000/svg" aria-label="Kivra" class="Brand-module--brand-logo--100ce" fill="none" height="33" role="img" viewBox="0 0 125 33" width="125"><g clip-path="url(#clip0_220_3942)"><path d="M18.31 21.4787L14.67 13.6297L26.2 0.554565H18.96L5.995 15.5782V0.554565H0V32.8201H5.995V23.4772L10.46 18.416L13.24 24.3815C15.64 29.4976 18.915 33 24.08 33C24.91 33 25.925 32.9101 26.665 32.7252V27.5641C26.665 27.5641 26.02 27.704 25.145 27.704C21.865 27.699 20.25 25.6705 18.31 21.4787Z" fill="currentColor"></path><path d="M53.135 27.0895C49.165 18.6608 46.37 9.77259 44.74 0.554565H38.745C40.545 11.7561 44.37 22.9526 49.725 32.8201H56.505C61.58 23.9718 65.82 11.4363 67.53 0.554565H61.58C59.95 9.77259 57.11 18.6608 53.135 27.0895Z" fill="currentColor"></path><path d="M35.56 0.554565H29.565V32.8201H35.56V0.554565Z" fill="currentColor"></path><path d="M125 32.8151C123.11 21.9833 119.19 10.3222 113.745 0.549561H107.055C101.61 10.3222 97.645 21.9833 95.755 32.8151H101.75C102.14 30.397 102.63 27.9338 103.215 25.4657C104.995 25.8654 107.3 26.1302 110.375 26.1302C113.405 26.1302 115.745 25.8604 117.535 25.4657C118.125 27.9338 118.61 30.392 119 32.8151H125ZM110.38 20.7393C107.945 20.7393 105.89 20.4845 104.63 20.2197C106.1 15.2934 108 10.4221 110.38 5.86052C112.76 10.4221 114.66 15.2934 116.13 20.2197C114.87 20.4845 112.815 20.7393 110.38 20.7393Z" fill="currentColor"></path><path d="M86.63 20.8043C90.9 19.4503 93.77 15.863 93.77 11.1066C93.775 4.65647 88.605 0 81.735 0C74.955 0 69.28 4.51658 69.28 12.2607V32.8152H75.275V12.7204C75.275 8.24875 78.045 5.5758 81.735 5.5758C85.24 5.5758 87.685 7.97395 87.685 11.4313C87.685 15.2584 84.735 18.1612 78.135 18.1612V21.7085C83.44 22.9526 87.175 27.5641 87.775 32.8152H94C93.505 27.6841 90.28 22.7828 86.63 20.8043Z" fill="currentColor"></path></g><defs><clipPath id="clip0_220_3942"><rect fill="white" height="33" width="125"></rect></clipPath></defs></svg>